<svg xmlns="http://www.w3.org/2000/svg" viewBox="0 0 1280 400" width="1280" height="400" role="img" aria-labelledby="title desc">
  <title id="title">SellThat — WhatsApp-native marketplace for local sellers</title>
  <desc id="desc">A minimal SellThat banner with the authentic brand mark, the message Local commerce, made conversational, and an eleven-language marketplace badge.</desc>
  <defs>
    <linearGradient id="paper" x1="0" y1="0" x2="1" y2="1">
      <stop offset="0" stop-color="#f7f9ff"/>
      <stop offset=".52" stop-color="#ffffff"/>
      <stop offset="1" stop-color="#eef3ff"/>
    </linearGradient>
    <linearGradient id="accent" x1="0" y1="0" x2="1" y2="0">
      <stop offset="0" stop-color="#265ffb"/>
      <stop offset="1" stop-color="#5b84ff"/>
    </linearGradient>
    <pattern id="dots" width="22" height="22" patternUnits="userSpaceOnUse">
      <circle cx="1.4" cy="1.4" r="1.4" fill="#10245e" fill-opacity=".055"/>
    </pattern>
    <clipPath id="clip">
      <rect x="1" y="1" width="1278" height="398" rx="24"/>
    </clipPath>
  </defs>

  <rect x="1" y="1" width="1278" height="398" rx="24" fill="url(#paper)" stroke="#dfe7f7" stroke-width="1.5"/>
  <g clip-path="url(#clip)">
    <rect x="1" y="1" width="1278" height="398" fill="url(#dots)"/>
    <g transform="translate(922,-46) scale(.67)" fill="#265ffb" fill-opacity=".045">
      <path fill-rule="evenodd" d="M623,8 L233,8 L232,9 L226,9 L225,10 L221,10 L220,11 L211,12 L210,13 L204,14 L203,15 L192,18 L189,20 L181,22 L146,39 L138,45 L135,46 L132,49 L131,49 L128,52 L123,55 L119,59 L118,59 L114,63 L113,63 L92,84 L92,85 L87,90 L84,95 L74,107 L74,108 L66,119 L64,124 L61,128 L61,130 L59,132 L59,134 L48,155 L48,157 L44,165 L43,171 L41,174 L41,177 L39,180 L39,184 L37,188 L36,196 L34,200 L34,206 L33,207 L32,218 L31,219 L31,230 L30,231 L30,270 L31,271 L31,280 L32,281 L32,287 L33,288 L33,293 L34,294 L35,303 L36,304 L37,311 L39,315 L39,318 L42,325 L42,328 L44,331 L46,338 L49,343 L49,345 L56,359 L58,361 L61,367 L61,369 L65,374 L67,379 L75,390 L76,393 L83,401 L83,402 L90,410 L90,411 L97,418 L97,419 L121,443 L122,443 L128,449 L129,449 L132,452 L137,455 L141,459 L142,459 L159,471 L163,472 L337,297 L337,296 L339,295 L346,288 L346,287 L348,285 L349,285 L365,269 L365,268 L367,267 L369,265 L369,264 L371,262 L372,262 L373,260 L375,259 L375,258 L377,257 L379,255 L379,254 L381,252 L382,252 L390,244 L390,243 L392,241 L393,241 L394,239 L570,63 L570,62 L574,58 L575,58 L576,56 L578,54 L579,54 L579,53 L601,32 L601,31 L623,9Z"/>
      <path fill-rule="evenodd" d="M577,343 L573,339 L573,338 L565,328 L565,327 L553,314 L552,314 L544,306 L543,306 L539,302 L538,302 L533,297 L532,297 L525,291 L524,291 L513,283 L497,275 L490,273 L485,270 L482,270 L479,268 L477,268 L473,266 L470,266 L467,264 L464,264 L460,262 L457,262 L456,261 L451,261 L408,304 L407,304 L407,305 L403,309 L402,309 L402,310 L397,315 L396,315 L396,316 L394,317 L394,318 L347,365 L346,365 L346,366 L314,398 L313,398 L313,399 L286,426 L285,426 L285,427 L283,429 L282,429 L282,430 L280,431 L280,432 L278,433 L278,434 L275,437 L274,437 L274,438 L270,442 L269,442 L268,444 L263,449 L262,449 L246,465 L246,466 L238,474 L237,474 L229,482 L229,483 L227,485 L226,485 L221,490 L221,491 L219,493 L218,493 L218,494 L216,495 L216,496 L214,497 L213,499 L211,501 L210,501 L207,504 L207,505 L205,506 L205,507 L203,508 L203,509 L200,512 L199,512 L189,522 L189,523 L187,525 L186,525 L186,526 L183,529 L182,529 L182,530 L152,560 L151,560 L150,562 L88,624 L87,624 L87,625 L7,705 L8,706 L357,706 L358,705 L369,705 L370,704 L378,704 L379,703 L392,703 L393,702 L399,702 L400,701 L405,701 L406,700 L412,700 L413,699 L423,698 L424,697 L427,697 L428,696 L431,696 L432,695 L436,695 L437,694 L439,694 L440,693 L442,693 L443,692 L457,688 L460,686 L465,685 L469,683 L471,681 L473,681 L475,679 L489,672 L491,670 L498,666 L501,663 L505,661 L509,657 L510,657 L514,653 L515,653 L519,649 L520,649 L532,637 L533,637 L533,636 L549,620 L549,619 L556,612 L556,611 L565,601 L565,600 L568,597 L569,594 L576,585 L577,582 L579,580 L580,577 L585,570 L586,566 L588,564 L588,562 L592,555 L593,550 L598,540 L599,534 L601,531 L601,528 L604,521 L604,518 L605,517 L605,514 L606,513 L606,509 L607,508 L608,498 L609,497 L609,490 L610,489 L610,478 L611,477 L611,453 L610,452 L610,438 L609,437 L609,430 L608,429 L608,425 L607,424 L607,419 L606,418 L606,414 L605,413 L604,404 L601,397 L601,394 L600,393 L598,385 L591,371 L591,369Z"/>
    </g>
  </g>

  <rect x="76" y="116" width="106" height="112" rx="22" fill="#000002"/>
  <g transform="translate(91,128) scale(.12)">
    <path fill="#ffffff" fill-rule="evenodd" d="M623,8 L233,8 L232,9 L226,9 L225,10 L221,10 L220,11 L211,12 L210,13 L204,14 L203,15 L192,18 L189,20 L181,22 L146,39 L138,45 L135,46 L132,49 L131,49 L128,52 L123,55 L119,59 L118,59 L114,63 L113,63 L92,84 L92,85 L87,90 L84,95 L74,107 L74,108 L66,119 L64,124 L61,128 L61,130 L59,132 L59,134 L48,155 L48,157 L44,165 L43,171 L41,174 L41,177 L39,180 L39,184 L37,188 L36,196 L34,200 L34,206 L33,207 L32,218 L31,219 L31,230 L30,231 L30,270 L31,271 L31,280 L32,281 L32,287 L33,288 L33,293 L34,294 L35,303 L36,304 L37,311 L39,315 L39,318 L42,325 L42,328 L44,331 L46,338 L49,343 L49,345 L56,359 L58,361 L61,367 L61,369 L65,374 L67,379 L75,390 L76,393 L83,401 L83,402 L90,410 L90,411 L97,418 L97,419 L121,443 L122,443 L128,449 L129,449 L132,452 L137,455 L141,459 L142,459 L159,471 L163,472 L337,297 L337,296 L339,295 L346,288 L346,287 L348,285 L349,285 L365,269 L365,268 L367,267 L369,265 L369,264 L371,262 L372,262 L373,260 L375,259 L375,258 L377,257 L379,255 L379,254 L381,252 L382,252 L390,244 L390,243 L392,241 L393,241 L394,239 L570,63 L570,62 L574,58 L575,58 L576,56 L578,54 L579,54 L579,53 L601,32 L601,31 L623,9Z"/>
    <path fill="#265ffb" fill-rule="evenodd" d="M577,343 L573,339 L573,338 L565,328 L565,327 L553,314 L552,314 L544,306 L543,306 L539,302 L538,302 L533,297 L532,297 L525,291 L524,291 L513,283 L497,275 L490,273 L485,270 L482,270 L479,268 L477,268 L473,266 L470,266 L467,264 L464,264 L460,262 L457,262 L456,261 L451,261 L408,304 L407,304 L407,305 L403,309 L402,309 L402,310 L397,315 L396,315 L396,316 L394,317 L394,318 L347,365 L346,365 L346,366 L314,398 L313,398 L313,399 L286,426 L285,426 L285,427 L283,429 L282,429 L282,430 L280,431 L280,432 L278,433 L278,434 L275,437 L274,437 L274,438 L270,442 L269,442 L268,444 L263,449 L262,449 L246,465 L246,466 L238,474 L237,474 L229,482 L229,483 L227,485 L226,485 L221,490 L221,491 L219,493 L218,493 L218,494 L216,495 L216,496 L214,497 L213,499 L211,501 L210,501 L207,504 L207,505 L205,506 L205,507 L203,508 L203,509 L200,512 L199,512 L189,522 L189,523 L187,525 L186,525 L186,526 L183,529 L182,529 L182,530 L152,560 L151,560 L150,562 L88,624 L87,624 L87,625 L7,705 L8,706 L357,706 L358,705 L369,705 L370,704 L378,704 L379,703 L392,703 L393,702 L399,702 L400,701 L405,701 L406,700 L412,700 L413,699 L423,698 L424,697 L427,697 L428,696 L431,696 L432,695 L436,695 L437,694 L439,694 L440,693 L442,693 L443,692 L457,688 L460,686 L465,685 L469,683 L471,681 L473,681 L475,679 L489,672 L491,670 L498,666 L501,663 L505,661 L509,657 L510,657 L514,653 L515,653 L519,649 L520,649 L532,637 L533,637 L533,636 L549,620 L549,619 L556,612 L556,611 L565,601 L565,600 L568,597 L569,594 L576,585 L577,582 L579,580 L580,577 L585,570 L586,566 L588,564 L588,562 L592,555 L593,550 L598,540 L599,534 L601,531 L601,528 L604,521 L604,518 L605,517 L605,514 L606,513 L606,509 L607,508 L608,498 L609,497 L609,490 L610,489 L610,478 L611,477 L611,453 L610,452 L610,438 L609,437 L609,430 L608,429 L608,425 L607,424 L607,419 L606,418 L606,414 L605,413 L604,404 L601,397 L601,394 L600,393 L598,385 L591,371 L591,369Z"/>
  </g>

  <line x1="232" y1="104" x2="232" y2="264" stroke="#dfe7f7" stroke-width="1.5"/>
  <text x="274" y="117" font-family="Inter, ui-sans-serif, system-ui, -apple-system, BlinkMacSystemFont, 'Segoe UI', sans-serif" font-size="13" font-weight="700" letter-spacing="3.1" fill="#61708d">SELLTHAT · WHATSAPP-NATIVE MARKETPLACE</text>
  <text x="274" y="180" font-family="Inter, ui-sans-serif, system-ui, -apple-system, BlinkMacSystemFont, 'Segoe UI', sans-serif" font-size="47" font-weight="780" letter-spacing="-1.4" fill="#11131a">Local commerce,</text>
  <text x="274" y="232" font-family="Inter, ui-sans-serif, system-ui, -apple-system, BlinkMacSystemFont, 'Segoe UI', sans-serif" font-size="47" font-weight="780" letter-spacing="-1.4" fill="#11131a">made <tspan fill="#265ffb">conversational.</tspan></text>
  <rect x="276" y="252" width="72" height="4" rx="2" fill="url(#accent)"/>
  <text x="274" y="291" font-family="Inter, ui-sans-serif, system-ui, -apple-system, BlinkMacSystemFont, 'Segoe UI', sans-serif" font-size="18" font-weight="400" fill="#5f6472">From a message, voice note, or photo to a live listing — in the seller’s language.</text>

  <g transform="rotate(-4 1085 191)">
    <rect x="970" y="144" width="222" height="92" rx="15" fill="#f2f6ff" stroke="#5b84ff" stroke-width="2"/>
    <rect x="978" y="152" width="206" height="76" rx="10" fill="none" stroke="#a8beff" stroke-width="1" stroke-dasharray="1 5" stroke-linecap="round"/>
    <text x="1081" y="184" text-anchor="middle" font-family="Inter, ui-sans-serif, system-ui, -apple-system, BlinkMacSystemFont, 'Segoe UI', sans-serif" font-size="27" font-weight="800" letter-spacing="2.1" fill="#10245e">11 LANGUAGES</text>
    <text x="1081" y="207" text-anchor="middle" font-family="Inter, ui-sans-serif, system-ui, -apple-system, BlinkMacSystemFont, 'Segoe UI', sans-serif" font-size="10.5" font-weight="700" letter-spacing="2.7" fill="#265ffb">TEXT · VOICE · PHOTO</text>
  </g>

  <line x1="76" y1="338" x2="1204" y2="338" stroke="#dfe7f7" stroke-width="1.5"/>
  <text x="76" y="363" font-family="'SFMono-Regular', Consolas, 'Liberation Mono', monospace" font-size="11.5" letter-spacing=".35" fill="#7a8191">sellthat.in</text>
  <text x="1204" y="363" text-anchor="end" font-family="Inter, ui-sans-serif, system-ui, -apple-system, BlinkMacSystemFont, 'Segoe UI', sans-serif" font-size="11.5" font-weight="650" letter-spacing="1.1" fill="#7a8191">WHATSAPP · OPENAI · SARVAM · POSTGRES</text>
</svg>
