<svg xmlns="http://www.w3.org/2000/svg" viewBox="5 7 3792 698" role="img" aria-labelledby="sellthat-wordmark-title sellthat-wordmark-desc">
  <title id="sellthat-wordmark-title">SellThat</title>
  <desc id="sellthat-wordmark-desc">The SellThat wordmark.</desc>
  <path d="M0 0 C2 -0 3 -0 5 -0 C9 -0 14 -0 18 0 C23 0 28 0 33 0 C41 0 49 0 57 0 C69 0 81 0 93 0 C113 0 132 0 152 0 C171 0 190 0 209 0 C210 0 211 0 212 0 C218 0 224 0 230 0 C278 0 327 0 375 0 C374 1 373 3 372 4 C372 4 371 5 371 6 C369 8 366 10 364 12 C361 16 357 20 354 23 C350 27 347 31 343 34 C343 35 343 35 341 36 C340 37 340 37 338 37 C338 38 338 39 337 39 C336 42 335 42 332 43 C332 44 332 44 331 45 C330 48 327 50 325 53 C324 53 324 53 323 55 C321 56 319 58 318 60 C316 61 315 63 314 64 C311 67 308 70 305 73 C300 77 296 82 291 86 C284 93 277 100 270 107 C257 120 244 133 232 146 C227 150 223 155 218 159 C215 162 213 165 210 168 C209 169 207 170 206 171 C204 173 202 175 201 177 C200 177 200 178 199 178 C197 180 195 183 193 185 C192 186 192 187 191 187 C190 187 190 187 189 187 C189 188 189 189 189 189 C188 191 188 191 186 192 C180 197 175 203 169 208 C168 210 166 212 164 213 C159 219 153 224 148 230 C147 231 146 233 144 234 C143 234 143 234 142 234 C142 235 142 235 141 236 C140 239 139 240 137 241 C134 244 132 246 130 248 C129 248 129 248 128 248 C127 250 127 251 126 252 C125 252 125 252 124 252 C124 253 124 254 123 254 C122 257 120 258 118 260 C117 260 117 260 116 260 C116 261 116 262 115 262 C114 264 113 266 111 268 C111 268 110 269 109 269 C109 270 108 271 108 271 C107 272 106 272 106 273 C105 273 105 273 104 275 C104 275 103 276 102 276 C101 277 101 277 99 277 C99 278 99 278 98 279 C97 282 95 284 92 286 C91 286 91 286 90 286 C90 287 90 287 89 288 C88 291 86 292 84 294 C84 295 83 296 82 297 C81 298 80 298 79 299 C78 300 78 301 77 302 C74 304 72 307 69 309 C67 312 64 315 61 317 C57 322 52 327 47 332 C41 337 36 343 30 348 C21 358 11 367 2 377 C0 378 -1 380 -3 381 C-4 383 -5 384 -7 385 C-9 388 -12 390 -14 393 C-16 395 -16 395 -17 396 C-18 396 -18 396 -19 396 C-19 397 -19 398 -19 398 C-21 400 -22 402 -24 403 C-25 404 -26 405 -27 406 C-27 407 -28 407 -28 408 C-29 408 -29 409 -30 409 C-36 415 -42 421 -48 427 C-51 431 -55 434 -58 438 C-62 442 -65 445 -69 449 C-70 450 -71 451 -72 453 C-74 454 -76 456 -78 458 C-78 459 -79 459 -80 460 C-81 461 -81 461 -84 463 C-90 463 -96 458 -101 454 C-102 454 -102 453 -103 453 C-114 445 -124 437 -133 428 C-134 428 -134 427 -135 426 C-153 409 -153 409 -156 404 C-156 404 -156 403 -156 402 C-157 402 -157 402 -158 402 C-159 401 -161 399 -162 397 C-162 397 -162 397 -163 395 C-164 394 -165 393 -166 392 C-167 391 -168 389 -169 388 C-209 335 -225 269 -215 204 C-212 183 -206 162 -197 143 C-196 140 -194 137 -193 134 C-185 116 -175 100 -162 85 C-161 83 -159 81 -157 78 C-148 67 -137 56 -125 47 C-125 47 -125 47 -123 46 C-114 40 -105 34 -96 28 C-94 27 -92 26 -90 25 C-77 18 -64 13 -50 8 C-48 8 -46 7 -44 6 C-29 2 -15 -0 0 0 Z " fill="#FFFFFF" transform="translate(245.92616271972656,6.6392364501953125)"/>
<path d="M0 0 C1 -0 1 -0 3 -0 C7 -0 11 -0 14 -0 C15 -0 15 -0 18 -0 C38 -0 57 1 77 4 C78 4 79 5 80 5 C120 11 156 28 187 55 C187 55 187 55 188 57 C222 87 237 133 240 177 C240 184 240 184 239 186 C226 186 214 186 202 186 C196 186 190 186 184 186 C179 186 173 186 168 186 C166 186 164 186 162 186 C159 186 156 186 153 186 C152 186 151 186 150 186 C144 186 144 186 143 185 C143 183 142 181 142 180 C138 154 128 131 107 115 C84 97 55 89 26 89 C25 89 24 89 23 89 C21 89 19 89 17 89 C15 89 13 89 11 89 C-19 88 -48 94 -71 114 C-74 117 -76 119 -78 122 C-79 123 -79 124 -80 124 C-90 138 -94 157 -92 174 C-89 187 -85 197 -76 207 C-76 208 -76 208 -74 210 C-57 230 -27 239 -3 246 C-2 246 -1 247 -1 247 C11 250 22 253 33 255 C51 259 68 264 86 269 C86 269 86 269 89 270 C100 273 111 277 122 281 C124 282 127 284 130 285 C158 296 186 309 208 330 C210 332 212 334 215 336 C239 360 251 396 252 429 C252 430 252 431 252 432 C253 464 247 495 232 523 C231 524 231 525 230 526 C206 569 163 594 117 607 C36 630 -62 623 -135 583 C-148 575 -160 566 -171 555 C-172 555 -173 554 -174 553 C-179 549 -182 544 -186 539 C-187 538 -187 538 -188 537 C-204 518 -213 497 -218 473 C-218 472 -219 471 -219 470 C-222 456 -224 440 -224 425 C-191 425 -158 425 -124 425 C-124 428 -124 428 -122 443 C-118 461 -111 475 -99 489 C-98 490 -98 491 -97 492 C-75 515 -43 525 -12 530 C-11 530 -11 531 -10 531 C14 535 40 534 64 529 C65 529 66 529 68 529 C71 528 74 527 78 526 C78 526 79 526 80 526 C103 520 124 508 137 487 C147 468 149 447 142 426 C136 406 121 392 102 383 C70 368 34 359 -0 350 C-55 336 -108 320 -152 283 C-153 283 -154 282 -155 281 C-162 275 -167 268 -173 261 C-174 259 -175 258 -176 257 C-198 228 -203 188 -199 153 C-199 150 -199 148 -198 145 C-198 144 -198 144 -198 143 C-193 115 -181 90 -163 68 C-162 67 -162 66 -161 65 C-157 61 -157 61 -155 59 C-155 59 -154 59 -153 59 C-153 58 -153 57 -152 56 C-150 54 -147 51 -144 49 C-144 49 -143 48 -143 48 C-127 35 -110 25 -91 17 C-91 17 -90 17 -89 16 C-62 5 -30 0 0 0 Z " fill="#FFFFFF" transform="translate(997.1640625,58.76171875)"/>
<path d="M0 0 C31 0 63 0 95 0 C95 16 95 31 95 47 C95 58 95 68 95 78 C95 79 95 80 95 80 C95 102 95 125 95 147 C95 148 95 148 95 149 C95 165 95 181 95 196 C95 204 95 212 95 220 C95 220 95 221 95 222 C95 247 95 272 95 297 C95 322 95 348 95 373 C95 377 95 381 95 384 C95 385 95 386 95 386 C95 398 95 409 95 421 C96 432 96 444 96 455 C96 462 96 468 96 474 C96 480 96 486 96 491 C96 493 96 495 96 497 C96 500 96 503 96 506 C96 507 96 507 96 508 C96 514 97 519 99 524 C102 526 102 526 104 526 C105 526 106 527 107 527 C117 528 127 528 138 528 C139 528 141 528 143 528 C145 528 146 528 147 528 C150 528 150 528 155 529 C155 554 155 578 155 604 C149 604 149 604 118 605 C116 605 116 605 106 605 C41 606 41 606 18 584 C10 575 6 563 3 552 C3 551 2 550 2 550 C-1 536 -0 521 -0 507 C-0 505 -0 503 -0 501 C-0 495 -0 489 -0 483 C-0 476 -0 470 -0 463 C-0 452 -0 441 -0 430 C-0 418 -0 406 -0 394 C-0 394 -0 393 -0 392 C-0 388 -0 385 -0 381 C-0 355 -0 328 -0 302 C-0 276 -0 251 -0 225 C-0 224 -0 224 -0 223 C-0 215 -0 207 -0 199 C-0 183 -0 167 -0 151 C-0 150 -0 149 -0 148 C-0 99 -0 49 0 0 Z " fill="#FFFFFF" transform="translate(1766,65)"/>
<path d="M0 0 C31 0 63 0 95 0 C95 8 95 8 95 47 C95 57 95 68 95 78 C95 78 95 79 95 80 C95 102 95 124 95 146 C95 147 95 147 95 148 C95 164 95 180 95 195 C95 203 95 211 95 218 C95 219 95 220 95 221 C95 245 95 270 95 295 C95 320 95 346 95 371 C95 375 95 378 95 382 C95 383 95 383 95 384 C95 396 95 407 95 418 C96 430 96 441 96 453 C96 459 96 465 96 471 C96 477 96 483 96 488 C96 490 96 492 96 495 C96 497 96 500 96 503 C96 504 96 504 96 505 C96 512 97 518 101 523 C107 528 113 527 120 527 C121 527 122 527 123 527 C126 528 130 528 133 528 C135 528 137 528 140 528 C145 528 151 528 156 528 C156 538 156 548 156 557 C157 562 157 566 157 571 C157 575 157 580 157 584 C157 586 157 587 157 589 C157 591 157 594 157 596 C157 597 157 597 157 598 C157 600 157 601 157 603 C155 605 152 604 150 604 C149 604 147 604 146 604 C144 604 143 604 142 604 C140 604 139 604 137 604 C134 604 131 604 128 605 C124 605 120 605 116 605 C112 605 108 605 104 605 C104 605 103 605 102 605 C61 605 61 605 46 601 C45 601 45 601 44 600 C29 595 17 585 10 571 C8 567 6 562 5 557 C4 556 4 555 4 554 C-0 538 -0 521 -0 505 C-0 503 -0 500 -0 498 C-0 492 -0 486 -0 480 C-0 474 -0 467 -0 461 C-0 450 -0 439 -0 427 C-0 416 -0 404 -0 392 C-0 392 -0 391 -0 390 C-0 386 -0 383 -0 379 C-0 353 -0 327 -0 300 C-0 275 -0 250 -0 224 C-0 224 -0 224 -0 222 C-0 214 -0 206 -0 198 C-0 182 -0 166 -0 150 C-0 149 -0 148 -0 148 C-0 98 -0 49 0 0 Z " fill="#FFFFFF" transform="translate(1972,65)"/>
<path d="M0 0 C2 1 3 3 5 4 C5 5 6 6 7 6 C14 13 20 21 26 29 C26 30 27 30 27 31 C57 73 65 126 65 176 C65 176 65 176 65 178 C65 186 64 193 64 200 C-40 201 -144 201 -251 201 C-249 222 -249 222 -247 229 C-247 230 -247 230 -246 231 C-238 262 -221 287 -194 303 C-185 308 -177 311 -168 314 C-167 314 -166 314 -166 315 C-154 318 -142 319 -130 319 C-129 319 -129 319 -128 319 C-98 318 -73 310 -51 289 C-44 282 -39 273 -35 264 C-32 257 -32 257 -29 255 C-26 256 -24 256 -21 257 C-21 257 -21 257 -19 257 C-16 258 -14 259 -11 260 C-8 260 -5 261 -3 262 C-1 262 1 263 3 263 C14 266 25 268 36 271 C38 271 39 272 41 272 C42 272 44 273 45 273 C49 274 53 275 57 276 C51 301 37 323 19 341 C18 342 17 343 16 345 C-18 380 -73 394 -120 397 C-121 397 -122 397 -122 397 C-137 397 -151 397 -165 395 C-166 395 -167 395 -168 395 C-190 392 -214 386 -235 376 C-236 376 -237 376 -237 375 C-282 355 -316 318 -334 272 C-338 261 -340 250 -343 239 C-343 238 -343 237 -344 236 C-347 217 -348 198 -348 180 C-348 176 -348 172 -348 169 C-348 151 -347 134 -343 117 C-343 115 -342 114 -342 113 C-342 110 -341 107 -340 104 C-340 104 -340 103 -340 102 C-332 67 -311 35 -286 9 C-286 9 -286 9 -284 7 C-279 2 -279 2 -277 0 C-277 0 -276 0 -275 0 C-275 -0 -275 -1 -274 -2 C-273 -4 -272 -5 -270 -7 C-269 -7 -268 -8 -268 -8 C-267 -9 -266 -9 -265 -10 C-264 -11 -264 -11 -263 -12 C-188 -64 -69 -60 0 0 Z M-165 34 C-166 34 -167 35 -167 35 C-196 41 -219 58 -235 82 C-245 98 -250 115 -252 132 C-250 134 -248 133 -245 133 C-245 133 -244 133 -243 133 C-242 133 -242 133 -240 133 C-237 133 -234 133 -231 133 C-229 133 -227 133 -225 133 C-219 133 -213 133 -207 133 C-201 133 -195 133 -189 133 C-177 133 -165 133 -154 133 C-140 133 -127 133 -114 133 C-87 133 -60 133 -32 133 C-32 130 -31 127 -32 124 C-32 124 -32 124 -32 122 C-32 121 -33 120 -33 119 C-33 119 -33 118 -33 117 C-40 90 -55 64 -78 49 C-88 43 -98 38 -109 35 C-110 35 -110 35 -113 34 C-129 31 -149 31 -165 34 Z " fill="#FFFFFF" transform="translate(1643.2724609375,279.740966796875)"/>
  <path d="M0 0 C1 0 2 0 2 0 C3 0 3 0 5 0 C8 0 10 0 13 0 C15 0 17 0 19 0 C24 0 30 0 35 0 C41 0 47 0 53 0 C64 0 75 0 86 0 C96 0 106 0 116 0 C117 0 117 0 118 0 C121 0 124 0 126 0 C151 0 176 0 200 0 C224 0 247 0 270 0 C271 0 271 0 272 0 C275 0 278 0 281 0 C283 0 284 0 285 0 C287 0 288 0 290 0 C313 0 336 0 359 0 C365 0 372 0 379 0 C393 0 407 0 421 0 C427 0 433 0 439 0 C444 0 449 0 455 0 C457 0 458 0 460 0 C463 0 466 0 468 0 C469 0 470 0 471 0 C474 0 478 0 481 1 C481 13 481 24 481 35 C481 41 481 46 482 51 C482 56 482 61 482 66 C482 68 482 70 482 72 C482 75 482 78 482 80 C482 81 482 82 482 83 C482 88 482 88 480 89 C418 89 356 89 292 89 C292 258 292 427 291 601 C284 602 278 603 271 603 C270 603 269 603 268 603 C265 603 262 603 260 603 C258 603 256 603 254 603 C249 603 245 603 241 603 C235 603 230 603 225 603 C221 603 216 603 212 603 C210 603 208 603 206 603 C203 603 201 603 198 603 C197 603 196 603 195 603 C192 603 190 603 186 600 C186 598 186 595 186 592 C186 591 186 590 186 590 C186 587 186 584 186 581 C186 579 186 577 186 574 C186 569 186 563 186 557 C186 551 186 545 186 538 C186 527 186 517 186 506 C186 494 186 483 186 472 C186 471 186 470 186 469 C186 466 186 462 186 459 C186 433 186 408 186 382 C186 358 186 333 186 308 C186 308 186 308 186 306 C186 298 186 291 186 283 C186 267 186 252 186 236 C186 235 186 235 186 234 C186 212 186 190 186 168 C186 167 186 166 186 164 C185 140 185 115 185 90 C122 90 58 90 -8 89 C-8 61 -8 33 -9 3 C-5 0 -4 0 0 0 Z " fill="#265FFB" transform="translate(2179.5676458477974,67.60504746437073)"/>
<path d="M0 0 C1 0 2 0 3 0 C3 0 3 0 5 0 C8 0 12 0 15 0 C17 0 19 0 21 0 C26 0 32 0 38 0 C43 0 49 0 55 0 C66 0 77 0 88 0 C90 4 90 7 90 12 C90 12 90 12 90 14 C90 16 90 17 90 19 C90 24 90 30 90 35 C90 36 90 37 90 39 C90 57 90 74 90 92 C90 97 90 102 90 107 C90 117 90 126 90 135 C90 146 90 156 91 167 C91 189 91 210 91 232 C91 231 92 231 92 230 C93 229 93 228 94 227 C94 226 95 225 95 224 C107 202 128 187 150 177 C150 177 150 177 153 176 C175 166 198 164 222 164 C223 164 223 164 224 164 C266 164 304 178 334 208 C355 230 365 261 370 291 C370 291 370 292 370 293 C372 311 372 330 372 348 C372 351 372 353 372 356 C372 364 372 371 372 379 C372 383 372 388 372 392 C372 405 372 418 372 431 C372 432 372 433 372 434 C372 434 372 435 372 436 C372 438 372 439 372 441 C372 442 372 443 372 444 C372 457 372 470 372 484 C372 498 372 512 372 525 C372 533 372 541 372 549 C372 555 372 562 372 568 C372 572 372 575 372 578 C372 582 372 586 372 589 C372 590 372 590 372 593 C372 594 372 595 372 596 C372 596 372 597 372 598 C372 599 372 599 372 600 C368 603 365 602 360 602 C359 602 358 602 357 602 C355 602 352 602 349 602 C347 602 344 602 342 602 C338 602 334 602 330 602 C324 602 319 602 313 602 C309 602 305 602 300 602 C298 602 296 602 294 602 C291 602 288 602 286 602 C285 602 284 602 283 602 C280 602 277 602 274 601 C274 601 274 600 274 599 C274 566 274 533 274 499 C274 495 274 491 274 487 C274 487 274 487 274 485 C274 472 274 459 274 446 C274 433 274 420 273 406 C273 398 273 390 273 382 C273 376 273 371 273 365 C273 362 273 359 273 355 C273 327 272 295 252 273 C251 272 251 272 250 271 C236 255 215 250 195 249 C169 248 142 255 123 273 C122 274 122 274 121 275 C100 294 92 328 91 355 C91 362 91 369 91 377 C91 379 91 382 91 384 C91 389 91 394 91 400 C91 407 91 415 90 422 C90 435 90 447 90 459 C90 460 90 461 90 461 C90 462 90 463 90 464 C90 474 90 485 90 495 C90 495 90 495 90 497 C90 509 90 522 90 534 C90 542 90 549 90 557 C90 562 90 568 90 574 C90 576 90 579 90 581 C90 584 90 587 90 591 C90 592 90 593 90 594 C90 600 90 600 89 601 C80 603 71 602 62 602 C60 602 59 602 57 602 C54 602 51 602 48 602 C44 602 40 602 36 602 C33 602 30 602 26 602 C25 602 23 602 22 602 C13 602 3 602 -6 601 C-8 599 -7 596 -7 594 C-7 593 -7 592 -7 591 C-7 590 -7 589 -7 588 C-7 584 -7 581 -7 577 C-7 575 -7 572 -7 570 C-7 564 -7 559 -7 554 C-7 546 -7 538 -7 530 C-7 515 -7 501 -7 487 C-7 474 -7 462 -7 449 C-7 448 -7 447 -7 446 C-7 443 -7 440 -7 436 C-7 405 -7 373 -7 341 C-7 313 -7 285 -7 257 C-7 225 -7 194 -7 162 C-7 159 -7 156 -7 152 C-7 151 -7 151 -7 150 C-7 137 -7 125 -7 112 C-7 98 -7 84 -7 69 C-7 61 -7 53 -7 45 C-7 40 -7 34 -7 28 C-7 25 -7 23 -7 20 C-7 17 -7 14 -7 11 C-7 10 -7 9 -7 8 C-7 0 -7 0 0 0 Z " fill="#265FFB" transform="translate(2706.0897827148438,67.87557983398438)"/>
<path d="M0 0 C0 0 0 0 3 0 C3 0 3 0 5 0 C8 -0 11 -0 14 0 C16 0 18 0 20 -0 C25 -0 29 0 33 0 C39 0 44 0 50 0 C54 -0 59 -0 63 0 C65 0 67 0 69 -0 C72 -0 75 0 78 0 C78 0 79 0 80 0 C86 0 86 0 87 1 C87 2 87 4 87 5 C87 6 87 6 87 8 C87 9 87 10 87 11 C87 12 87 13 87 14 C87 17 87 20 87 24 C87 26 87 28 87 30 C87 37 87 45 87 53 C87 70 87 87 87 104 C121 104 155 105 190 105 C190 132 190 159 190 186 C156 186 123 186 88 186 C88 242 88 242 88 265 C88 270 88 276 88 281 C88 282 88 282 88 283 C88 293 88 303 88 313 C88 325 88 337 88 348 C88 355 88 361 88 367 C88 373 88 379 88 384 C88 387 88 389 88 391 C88 437 88 437 99 450 C108 459 120 460 132 460 C133 460 134 460 135 460 C136 460 137 460 138 460 C140 460 142 460 144 460 C147 460 150 460 153 460 C166 460 178 460 190 459 C191 462 191 464 191 468 C191 468 191 468 191 470 C191 472 191 474 191 476 C191 478 191 479 191 481 C191 484 191 487 191 491 C191 495 191 499 191 503 C191 506 191 509 191 513 C191 514 191 516 191 517 C191 519 191 521 191 523 C191 524 191 524 191 527 C191 530 191 530 190 533 C147 543 97 546 55 532 C55 532 55 532 52 531 C30 523 12 508 2 487 C-8 467 -7 444 -7 421 C-7 419 -7 416 -7 413 C-7 408 -7 402 -7 397 C-7 389 -7 381 -7 373 C-7 360 -7 347 -8 335 C-8 322 -8 310 -8 297 C-8 296 -8 296 -8 295 C-8 291 -8 287 -8 283 C-8 251 -8 219 -8 187 C-8 187 -8 187 -11 187 C-19 187 -27 187 -36 187 C-40 187 -44 187 -49 187 C-53 187 -57 187 -61 186 C-63 186 -64 186 -66 186 C-68 186 -70 186 -72 186 C-74 186 -75 186 -76 186 C-79 186 -79 186 -80 185 C-80 183 -80 180 -80 178 C-80 177 -80 176 -80 175 C-80 173 -80 170 -80 168 C-80 166 -80 164 -80 162 C-80 157 -80 153 -80 148 C-80 143 -80 138 -80 134 C-80 124 -80 115 -80 105 C-71 105 -63 105 -54 105 C-50 105 -47 105 -43 104 C-39 104 -35 104 -31 104 C-30 104 -28 104 -27 104 C-25 104 -23 104 -21 104 C-20 104 -18 104 -17 104 C-14 104 -11 105 -8 105 C-8 104 -8 103 -8 101 C-8 89 -8 77 -8 65 C-8 58 -8 52 -7 46 C-7 40 -7 34 -7 27 C-7 25 -7 23 -7 21 C-7 17 -7 14 -7 11 C-7 10 -7 9 -7 8 C-7 7 -7 6 -7 5 C-7 4 -7 4 -7 3 C-7 -1 -3 0 0 0 Z " fill="#265FFB" transform="translate(3605.9517517089844,133.86447143554688)"/>
<path d="M0 0 C1 0 2 0 3 0 C32 6 60 17 82 38 C82 38 82 38 84 39 C100 55 111 74 119 96 C119 97 120 98 120 99 C123 106 124 113 125 121 C125 121 126 122 126 123 C129 142 128 162 128 181 C128 184 128 187 128 189 C128 195 128 201 128 207 C128 216 128 224 128 233 C128 247 128 261 128 275 C128 288 128 302 128 315 C128 315 128 315 128 318 C128 322 128 326 128 330 C128 365 128 399 128 434 C125 436 121 435 117 435 C117 435 116 435 115 435 C112 435 109 435 106 435 C104 435 102 435 100 435 C94 435 89 435 84 435 C78 435 73 435 67 435 C56 435 46 435 35 435 C34 433 34 431 34 429 C34 428 34 428 34 426 C34 425 34 425 34 423 C34 422 34 422 34 419 C34 415 34 411 34 406 C34 403 34 400 34 396 C34 395 34 394 34 393 C34 387 34 382 33 376 C33 377 32 377 32 378 C28 386 22 392 16 398 C16 398 16 398 14 400 C10 404 6 408 1 411 C0 411 -1 412 -1 413 C-33 434 -67 443 -105 443 C-106 443 -107 443 -108 443 C-126 443 -144 442 -162 436 C-163 436 -163 436 -164 435 C-186 428 -203 416 -219 399 C-219 399 -219 399 -221 397 C-238 378 -243 351 -243 327 C-243 326 -243 325 -243 324 C-243 291 -232 265 -210 240 C-208 238 -208 238 -205 237 C-205 236 -205 236 -205 235 C-203 234 -203 234 -201 232 C-201 231 -200 231 -199 230 C-198 230 -197 229 -196 228 C-196 228 -195 227 -194 226 C-157 200 -113 193 -69 186 C-66 185 -63 184 -59 184 C-37 180 -14 176 9 173 C10 173 12 172 14 172 C16 172 18 171 20 171 C22 171 23 171 24 170 C27 170 27 170 30 170 C30 145 29 120 11 101 C11 100 11 100 11 99 C10 99 10 98 9 98 C7 97 4 95 2 93 C-20 77 -49 76 -75 80 C-92 82 -110 90 -121 104 C-131 118 -134 131 -137 147 C-167 147 -196 147 -227 147 C-227 127 -227 127 -225 120 C-225 119 -225 118 -225 118 C-219 93 -209 71 -193 52 C-192 52 -192 51 -191 50 C-189 47 -186 46 -183 44 C-183 43 -182 43 -182 42 C-180 39 -178 37 -175 35 C-175 35 -175 35 -173 33 C-168 29 -162 25 -155 21 C-154 21 -154 20 -153 20 C-108 -5 -50 -10 0 0 Z M20 235 C19 235 19 235 18 235 C15 236 13 236 10 237 C7 237 5 238 2 238 C0 238 -2 239 -3 239 C-9 240 -15 241 -21 241 C-113 255 -113 255 -134 280 C-143 293 -146 307 -145 323 C-143 332 -140 340 -135 347 C-134 348 -134 349 -133 350 C-119 364 -101 368 -82 369 C-81 369 -81 369 -80 369 C-62 369 -44 365 -28 358 C-27 358 -27 357 -26 357 C-1 346 15 328 26 303 C32 288 31 270 31 254 C31 252 31 251 31 249 C31 244 31 240 31 235 C27 234 24 234 20 235 Z " fill="#265FFB" transform="translate(3373,235)"/>
<path d="M0 0 C1 0 2 1 3 1 C4 1 4 1 6 2 C7 2 7 2 10 3 C11 3 12 4 13 4 C14 4 15 5 17 5 C26 9 36 12 45 17 C46 17 47 18 48 18 C62 26 75 37 87 47 C88 47 88 48 89 48 C96 55 103 62 109 70 C110 72 111 73 112 75 C145 118 156 178 150 231 C145 267 132 301 111 331 C111 331 111 331 109 334 C99 348 87 362 74 374 C73 375 72 376 72 376 C71 377 70 378 69 379 C68 380 68 380 67 381 C37 413 -5 432 -48 439 C-49 439 -50 439 -50 439 C-79 445 -108 445 -137 445 C-141 445 -145 445 -149 445 C-157 445 -164 445 -172 445 C-182 445 -193 445 -203 445 C-221 445 -238 445 -255 445 C-272 445 -289 445 -305 445 C-306 445 -307 445 -309 445 C-314 445 -319 445 -324 445 C-367 445 -410 445 -453 445 C-453 442 -453 442 -452 440 C-451 440 -451 439 -450 439 C-449 438 -449 437 -448 437 C-448 436 -448 436 -446 435 C-445 434 -444 433 -444 432 C-441 430 -439 427 -436 425 C-434 423 -433 421 -431 420 C-426 415 -422 410 -417 406 C-412 401 -408 397 -403 392 C-396 385 -388 377 -381 370 C-377 366 -374 363 -370 359 C-351 340 -331 320 -312 301 C-311 300 -310 299 -309 298 C-308 297 -306 295 -304 293 C-301 290 -298 287 -295 284 C-294 283 -293 282 -292 281 C-290 279 -288 277 -286 275 C-286 275 -285 274 -285 274 C-281 270 -278 267 -275 263 C-273 261 -272 260 -270 258 C-269 257 -267 255 -266 254 C-265 253 -263 251 -262 250 C-261 249 -261 249 -260 248 C-258 246 -258 246 -256 246 C-256 245 -256 245 -256 244 C-255 244 -255 244 -254 244 C-254 243 -254 243 -253 242 C-252 239 -250 237 -247 235 C-246 235 -246 235 -245 235 C-245 234 -245 234 -245 233 C-244 233 -244 233 -243 233 C-243 232 -243 232 -243 231 C-241 228 -238 226 -236 224 C-233 222 -232 221 -230 218 C-227 215 -224 212 -221 210 C-217 206 -214 203 -211 199 C-206 193 -200 188 -194 183 C-190 180 -187 176 -184 172 C-184 172 -183 171 -183 171 C-182 171 -182 171 -181 171 C-181 170 -181 170 -181 169 C-180 169 -180 169 -179 169 C-179 168 -179 168 -179 167 C-178 166 -178 166 -176 164 C-170 159 -165 154 -160 149 C-159 148 -158 147 -157 146 C-155 144 -153 142 -151 140 C-149 138 -146 135 -144 133 C-143 132 -142 131 -141 130 C-119 108 -119 108 -117 106 C-116 105 -115 104 -114 103 C-110 99 -107 96 -104 93 C-101 90 -97 86 -94 83 C-91 80 -89 78 -86 75 C-84 73 -81 70 -79 68 C-77 66 -76 65 -75 64 C-74 63 -73 62 -72 61 C-71 60 -70 60 -70 59 C-68 57 -68 57 -67 55 C-66 55 -66 55 -65 55 C-65 54 -65 54 -65 53 C-64 52 -64 52 -63 51 C-61 49 -59 48 -57 46 C-55 43 -53 41 -50 39 C-46 35 -42 31 -38 26 C-36 25 -35 23 -33 22 C-31 19 -28 16 -26 14 C-23 11 -21 9 -19 7 C-18 6 -17 5 -16 4 C-11 -1 -7 -2 0 0 Z " fill="#265FFB" transform="translate(459,260)"/>
</svg>
